<mxfile host="app.diagrams.net" agent="Mozilla/5.0 (Windows NT 10.0; Win64; x64) AppleWebKit/537.36 (KHTML, like Gecko) Chrome/131.0.0.0 Safari/537.36" version="25.0.3">
  <diagram name="Page-1" id="k25pgxl4B6OccAPvU8h1">
    <mxGraphModel dx="2868" dy="1492" grid="1" gridSize="10" guides="1" tooltips="1" connect="1" arrows="1" fold="1" page="1" pageScale="1" pageWidth="850" pageHeight="1100" math="0" shadow="0">
      <root>
        <mxCell id="0" />
        <mxCell id="1" parent="0" />
        <mxCell id="cngvxrRuGlNg6IQMfRy1-22" style="edgeStyle=orthogonalEdgeStyle;rounded=0;orthogonalLoop=1;jettySize=auto;html=1;entryX=0.5;entryY=0;entryDx=0;entryDy=0;" edge="1" parent="1" source="cngvxrRuGlNg6IQMfRy1-1" target="cngvxrRuGlNg6IQMfRy1-3">
          <mxGeometry relative="1" as="geometry" />
        </mxCell>
        <mxCell id="cngvxrRuGlNg6IQMfRy1-1" value="&lt;font style=&quot;font-size: 24px;&quot;&gt;start&lt;/font&gt;" style="strokeWidth=2;html=1;shape=mxgraph.flowchart.start_1;whiteSpace=wrap;" vertex="1" parent="1">
          <mxGeometry x="375" y="40" width="100" height="60" as="geometry" />
        </mxCell>
        <mxCell id="cngvxrRuGlNg6IQMfRy1-2" value="&lt;font style=&quot;font-size: 24px;&quot;&gt;end&lt;/font&gt;" style="strokeWidth=2;html=1;shape=mxgraph.flowchart.start_1;whiteSpace=wrap;" vertex="1" parent="1">
          <mxGeometry x="375" y="1200" width="100" height="60" as="geometry" />
        </mxCell>
        <mxCell id="cngvxrRuGlNg6IQMfRy1-23" style="edgeStyle=orthogonalEdgeStyle;rounded=0;orthogonalLoop=1;jettySize=auto;html=1;entryX=0.5;entryY=0;entryDx=0;entryDy=0;" edge="1" parent="1" source="cngvxrRuGlNg6IQMfRy1-3" target="cngvxrRuGlNg6IQMfRy1-5">
          <mxGeometry relative="1" as="geometry" />
        </mxCell>
        <mxCell id="cngvxrRuGlNg6IQMfRy1-3" value="input r1, c1" style="shape=parallelogram;perimeter=parallelogramPerimeter;whiteSpace=wrap;html=1;fixedSize=1;" vertex="1" parent="1">
          <mxGeometry x="349" y="150" width="152" height="30" as="geometry" />
        </mxCell>
        <mxCell id="cngvxrRuGlNg6IQMfRy1-24" style="edgeStyle=orthogonalEdgeStyle;rounded=0;orthogonalLoop=1;jettySize=auto;html=1;entryX=0.5;entryY=0;entryDx=0;entryDy=0;" edge="1" parent="1" source="cngvxrRuGlNg6IQMfRy1-5" target="cngvxrRuGlNg6IQMfRy1-7">
          <mxGeometry relative="1" as="geometry" />
        </mxCell>
        <mxCell id="cngvxrRuGlNg6IQMfRy1-5" value="inputMatrix(r1, c1, array1, &quot;Array1&quot;)" style="verticalLabelPosition=bottom;verticalAlign=top;html=1;shape=process;whiteSpace=wrap;rounded=1;size=0.14;arcSize=6;" vertex="1" parent="1">
          <mxGeometry x="357" y="240" width="136" height="30" as="geometry" />
        </mxCell>
        <mxCell id="cngvxrRuGlNg6IQMfRy1-25" style="edgeStyle=orthogonalEdgeStyle;rounded=0;orthogonalLoop=1;jettySize=auto;html=1;entryX=0.5;entryY=0;entryDx=0;entryDy=0;" edge="1" parent="1" source="cngvxrRuGlNg6IQMfRy1-7" target="cngvxrRuGlNg6IQMfRy1-8">
          <mxGeometry relative="1" as="geometry" />
        </mxCell>
        <mxCell id="cngvxrRuGlNg6IQMfRy1-7" value="input r2, c2" style="shape=parallelogram;perimeter=parallelogramPerimeter;whiteSpace=wrap;html=1;fixedSize=1;" vertex="1" parent="1">
          <mxGeometry x="349" y="350" width="152" height="30" as="geometry" />
        </mxCell>
        <mxCell id="cngvxrRuGlNg6IQMfRy1-10" style="edgeStyle=orthogonalEdgeStyle;rounded=0;orthogonalLoop=1;jettySize=auto;html=1;entryX=0.5;entryY=0;entryDx=0;entryDy=0;" edge="1" parent="1" source="cngvxrRuGlNg6IQMfRy1-8" target="cngvxrRuGlNg6IQMfRy1-9">
          <mxGeometry relative="1" as="geometry" />
        </mxCell>
        <mxCell id="cngvxrRuGlNg6IQMfRy1-26" style="edgeStyle=orthogonalEdgeStyle;rounded=0;orthogonalLoop=1;jettySize=auto;html=1;entryX=0.5;entryY=0;entryDx=0;entryDy=0;" edge="1" parent="1" source="cngvxrRuGlNg6IQMfRy1-8" target="cngvxrRuGlNg6IQMfRy1-14">
          <mxGeometry relative="1" as="geometry" />
        </mxCell>
        <mxCell id="cngvxrRuGlNg6IQMfRy1-8" value="if (c1 !=r2)" style="rhombus;whiteSpace=wrap;html=1;" vertex="1" parent="1">
          <mxGeometry x="354" y="420" width="142" height="70" as="geometry" />
        </mxCell>
        <mxCell id="cngvxrRuGlNg6IQMfRy1-9" value="output&lt;br&gt;&quot;Matrix multiplication not possible with given dimenstions)" style="shape=parallelogram;perimeter=parallelogramPerimeter;whiteSpace=wrap;html=1;fixedSize=1;" vertex="1" parent="1">
          <mxGeometry x="530" y="480" width="230" height="70" as="geometry" />
        </mxCell>
        <mxCell id="cngvxrRuGlNg6IQMfRy1-11" value="&lt;font style=&quot;font-size: 16px;&quot;&gt;return 1&lt;/font&gt;" style="strokeWidth=2;html=1;shape=mxgraph.flowchart.start_1;whiteSpace=wrap;" vertex="1" parent="1">
          <mxGeometry x="595" y="580" width="100" height="60" as="geometry" />
        </mxCell>
        <mxCell id="cngvxrRuGlNg6IQMfRy1-12" style="edgeStyle=orthogonalEdgeStyle;rounded=0;orthogonalLoop=1;jettySize=auto;html=1;entryX=0.5;entryY=0;entryDx=0;entryDy=0;entryPerimeter=0;" edge="1" parent="1" source="cngvxrRuGlNg6IQMfRy1-9" target="cngvxrRuGlNg6IQMfRy1-11">
          <mxGeometry relative="1" as="geometry" />
        </mxCell>
        <mxCell id="cngvxrRuGlNg6IQMfRy1-27" style="edgeStyle=orthogonalEdgeStyle;rounded=0;orthogonalLoop=1;jettySize=auto;html=1;entryX=0.5;entryY=0;entryDx=0;entryDy=0;" edge="1" parent="1" source="cngvxrRuGlNg6IQMfRy1-14" target="cngvxrRuGlNg6IQMfRy1-15">
          <mxGeometry relative="1" as="geometry" />
        </mxCell>
        <mxCell id="cngvxrRuGlNg6IQMfRy1-14" value="inputMatrix(r2, c2, array2, &quot;Array2&quot;)" style="verticalLabelPosition=bottom;verticalAlign=top;html=1;shape=process;whiteSpace=wrap;rounded=1;size=0.14;arcSize=6;" vertex="1" parent="1">
          <mxGeometry x="357" y="680" width="136" height="30" as="geometry" />
        </mxCell>
        <mxCell id="cngvxrRuGlNg6IQMfRy1-28" style="edgeStyle=orthogonalEdgeStyle;rounded=0;orthogonalLoop=1;jettySize=auto;html=1;entryX=0.5;entryY=0;entryDx=0;entryDy=0;" edge="1" parent="1" source="cngvxrRuGlNg6IQMfRy1-15" target="cngvxrRuGlNg6IQMfRy1-16">
          <mxGeometry relative="1" as="geometry" />
        </mxCell>
        <mxCell id="cngvxrRuGlNg6IQMfRy1-15" value="multiplyMatrixces(r1, c1, array1, r2, c2, array2, result)" style="verticalLabelPosition=bottom;verticalAlign=top;html=1;shape=process;whiteSpace=wrap;rounded=1;size=0.14;arcSize=6;" vertex="1" parent="1">
          <mxGeometry x="357" y="790" width="136" height="30" as="geometry" />
        </mxCell>
        <mxCell id="cngvxrRuGlNg6IQMfRy1-29" style="edgeStyle=orthogonalEdgeStyle;rounded=0;orthogonalLoop=1;jettySize=auto;html=1;entryX=0.5;entryY=0;entryDx=0;entryDy=0;" edge="1" parent="1" source="cngvxrRuGlNg6IQMfRy1-16" target="cngvxrRuGlNg6IQMfRy1-17">
          <mxGeometry relative="1" as="geometry" />
        </mxCell>
        <mxCell id="cngvxrRuGlNg6IQMfRy1-16" value="printMatrix(r1, c1, array1, &quot;Array1&quot;" style="verticalLabelPosition=bottom;verticalAlign=top;html=1;shape=process;whiteSpace=wrap;rounded=1;size=0.14;arcSize=6;" vertex="1" parent="1">
          <mxGeometry x="357" y="900" width="136" height="30" as="geometry" />
        </mxCell>
        <mxCell id="cngvxrRuGlNg6IQMfRy1-30" style="edgeStyle=orthogonalEdgeStyle;rounded=0;orthogonalLoop=1;jettySize=auto;html=1;entryX=0.5;entryY=0;entryDx=0;entryDy=0;" edge="1" parent="1" source="cngvxrRuGlNg6IQMfRy1-17" target="cngvxrRuGlNg6IQMfRy1-21">
          <mxGeometry relative="1" as="geometry" />
        </mxCell>
        <mxCell id="cngvxrRuGlNg6IQMfRy1-17" value="printMatrix(r2, c2, array2, &quot;Array2&quot;" style="verticalLabelPosition=bottom;verticalAlign=top;html=1;shape=process;whiteSpace=wrap;rounded=1;size=0.14;arcSize=6;" vertex="1" parent="1">
          <mxGeometry x="357" y="990" width="136" height="30" as="geometry" />
        </mxCell>
        <mxCell id="cngvxrRuGlNg6IQMfRy1-21" value="printMatrix(r1, c2, result, &quot;Array1 x Array2&quot;" style="verticalLabelPosition=bottom;verticalAlign=top;html=1;shape=process;whiteSpace=wrap;rounded=1;size=0.14;arcSize=6;" vertex="1" parent="1">
          <mxGeometry x="357" y="1090" width="136" height="30" as="geometry" />
        </mxCell>
        <mxCell id="cngvxrRuGlNg6IQMfRy1-31" style="edgeStyle=orthogonalEdgeStyle;rounded=0;orthogonalLoop=1;jettySize=auto;html=1;entryX=0.5;entryY=0;entryDx=0;entryDy=0;entryPerimeter=0;" edge="1" parent="1" source="cngvxrRuGlNg6IQMfRy1-21" target="cngvxrRuGlNg6IQMfRy1-2">
          <mxGeometry relative="1" as="geometry" />
        </mxCell>
        <mxCell id="cngvxrRuGlNg6IQMfRy1-38" style="edgeStyle=orthogonalEdgeStyle;rounded=0;orthogonalLoop=1;jettySize=auto;html=1;entryX=0.5;entryY=0;entryDx=0;entryDy=0;" edge="1" parent="1" source="cngvxrRuGlNg6IQMfRy1-33" target="cngvxrRuGlNg6IQMfRy1-35">
          <mxGeometry relative="1" as="geometry" />
        </mxCell>
        <mxCell id="cngvxrRuGlNg6IQMfRy1-33" value="inputMatrix(rows, cols, matrix[rows, cols], name" style="strokeWidth=2;html=1;shape=mxgraph.flowchart.start_1;whiteSpace=wrap;" vertex="1" parent="1">
          <mxGeometry x="850" y="40" width="170" height="50" as="geometry" />
        </mxCell>
        <mxCell id="cngvxrRuGlNg6IQMfRy1-47" style="edgeStyle=orthogonalEdgeStyle;rounded=0;orthogonalLoop=1;jettySize=auto;html=1;entryX=0.5;entryY=0;entryDx=0;entryDy=0;" edge="1" parent="1" source="cngvxrRuGlNg6IQMfRy1-34" target="cngvxrRuGlNg6IQMfRy1-45">
          <mxGeometry relative="1" as="geometry" />
        </mxCell>
        <mxCell id="cngvxrRuGlNg6IQMfRy1-34" value="printMatrix(rows, cols, matrix[rows, cols], name" style="strokeWidth=2;html=1;shape=mxgraph.flowchart.start_1;whiteSpace=wrap;" vertex="1" parent="1">
          <mxGeometry x="1420" y="40" width="170" height="50" as="geometry" />
        </mxCell>
        <mxCell id="cngvxrRuGlNg6IQMfRy1-39" style="edgeStyle=orthogonalEdgeStyle;rounded=0;orthogonalLoop=1;jettySize=auto;html=1;entryX=0.5;entryY=0;entryDx=0;entryDy=0;" edge="1" parent="1" source="cngvxrRuGlNg6IQMfRy1-35" target="cngvxrRuGlNg6IQMfRy1-36">
          <mxGeometry relative="1" as="geometry" />
        </mxCell>
        <mxCell id="cngvxrRuGlNg6IQMfRy1-35" value="for (i &amp;lt; rows, i++)" style="rhombus;whiteSpace=wrap;html=1;" vertex="1" parent="1">
          <mxGeometry x="864" y="130" width="142" height="70" as="geometry" />
        </mxCell>
        <mxCell id="cngvxrRuGlNg6IQMfRy1-40" style="edgeStyle=orthogonalEdgeStyle;rounded=0;orthogonalLoop=1;jettySize=auto;html=1;entryX=0.5;entryY=0;entryDx=0;entryDy=0;" edge="1" parent="1" source="cngvxrRuGlNg6IQMfRy1-36" target="cngvxrRuGlNg6IQMfRy1-37">
          <mxGeometry relative="1" as="geometry" />
        </mxCell>
        <mxCell id="cngvxrRuGlNg6IQMfRy1-42" style="edgeStyle=orthogonalEdgeStyle;rounded=0;orthogonalLoop=1;jettySize=auto;html=1;entryX=1;entryY=1;entryDx=0;entryDy=0;" edge="1" parent="1" source="cngvxrRuGlNg6IQMfRy1-36" target="cngvxrRuGlNg6IQMfRy1-35">
          <mxGeometry relative="1" as="geometry" />
        </mxCell>
        <mxCell id="cngvxrRuGlNg6IQMfRy1-36" value="for (j &amp;lt; cols, j++)" style="rhombus;whiteSpace=wrap;html=1;" vertex="1" parent="1">
          <mxGeometry x="1012" y="225" width="142" height="70" as="geometry" />
        </mxCell>
        <mxCell id="cngvxrRuGlNg6IQMfRy1-41" style="edgeStyle=orthogonalEdgeStyle;rounded=0;orthogonalLoop=1;jettySize=auto;html=1;entryX=1;entryY=1;entryDx=0;entryDy=0;" edge="1" parent="1" source="cngvxrRuGlNg6IQMfRy1-37" target="cngvxrRuGlNg6IQMfRy1-36">
          <mxGeometry relative="1" as="geometry" />
        </mxCell>
        <mxCell id="cngvxrRuGlNg6IQMfRy1-37" value="input matrix[i][j]" style="shape=parallelogram;perimeter=parallelogramPerimeter;whiteSpace=wrap;html=1;fixedSize=1;" vertex="1" parent="1">
          <mxGeometry x="1165" y="310" width="152" height="30" as="geometry" />
        </mxCell>
        <mxCell id="cngvxrRuGlNg6IQMfRy1-43" value="&lt;font style=&quot;font-size: 24px;&quot;&gt;end&lt;/font&gt;" style="strokeWidth=2;html=1;shape=mxgraph.flowchart.start_1;whiteSpace=wrap;" vertex="1" parent="1">
          <mxGeometry x="885" y="330" width="100" height="60" as="geometry" />
        </mxCell>
        <mxCell id="cngvxrRuGlNg6IQMfRy1-44" style="edgeStyle=orthogonalEdgeStyle;rounded=0;orthogonalLoop=1;jettySize=auto;html=1;entryX=0.5;entryY=0;entryDx=0;entryDy=0;entryPerimeter=0;" edge="1" parent="1" source="cngvxrRuGlNg6IQMfRy1-35" target="cngvxrRuGlNg6IQMfRy1-43">
          <mxGeometry relative="1" as="geometry" />
        </mxCell>
        <mxCell id="cngvxrRuGlNg6IQMfRy1-49" style="edgeStyle=orthogonalEdgeStyle;rounded=0;orthogonalLoop=1;jettySize=auto;html=1;entryX=0.5;entryY=0;entryDx=0;entryDy=0;" edge="1" parent="1" source="cngvxrRuGlNg6IQMfRy1-45" target="cngvxrRuGlNg6IQMfRy1-46">
          <mxGeometry relative="1" as="geometry" />
        </mxCell>
        <mxCell id="cngvxrRuGlNg6IQMfRy1-45" value="for (i &amp;lt; rows, i++)" style="rhombus;whiteSpace=wrap;html=1;" vertex="1" parent="1">
          <mxGeometry x="1434" y="130" width="142" height="70" as="geometry" />
        </mxCell>
        <mxCell id="cngvxrRuGlNg6IQMfRy1-50" style="edgeStyle=orthogonalEdgeStyle;rounded=0;orthogonalLoop=1;jettySize=auto;html=1;entryX=0.5;entryY=0;entryDx=0;entryDy=0;" edge="1" parent="1" source="cngvxrRuGlNg6IQMfRy1-46" target="cngvxrRuGlNg6IQMfRy1-48">
          <mxGeometry relative="1" as="geometry" />
        </mxCell>
        <mxCell id="cngvxrRuGlNg6IQMfRy1-52" style="edgeStyle=orthogonalEdgeStyle;rounded=0;orthogonalLoop=1;jettySize=auto;html=1;entryX=1;entryY=1;entryDx=0;entryDy=0;" edge="1" parent="1" source="cngvxrRuGlNg6IQMfRy1-46" target="cngvxrRuGlNg6IQMfRy1-45">
          <mxGeometry relative="1" as="geometry" />
        </mxCell>
        <mxCell id="cngvxrRuGlNg6IQMfRy1-46" value="for (j &amp;lt; cols, j++)" style="rhombus;whiteSpace=wrap;html=1;" vertex="1" parent="1">
          <mxGeometry x="1578" y="225" width="142" height="70" as="geometry" />
        </mxCell>
        <mxCell id="cngvxrRuGlNg6IQMfRy1-51" style="edgeStyle=orthogonalEdgeStyle;rounded=0;orthogonalLoop=1;jettySize=auto;html=1;entryX=1;entryY=1;entryDx=0;entryDy=0;" edge="1" parent="1" source="cngvxrRuGlNg6IQMfRy1-48" target="cngvxrRuGlNg6IQMfRy1-46">
          <mxGeometry relative="1" as="geometry" />
        </mxCell>
        <mxCell id="cngvxrRuGlNg6IQMfRy1-48" value="output matrix[i][j]" style="shape=parallelogram;perimeter=parallelogramPerimeter;whiteSpace=wrap;html=1;fixedSize=1;" vertex="1" parent="1">
          <mxGeometry x="1730" y="300" width="152" height="30" as="geometry" />
        </mxCell>
        <mxCell id="cngvxrRuGlNg6IQMfRy1-53" value="&lt;font style=&quot;font-size: 24px;&quot;&gt;end&lt;/font&gt;" style="strokeWidth=2;html=1;shape=mxgraph.flowchart.start_1;whiteSpace=wrap;" vertex="1" parent="1">
          <mxGeometry x="1455" y="320" width="100" height="60" as="geometry" />
        </mxCell>
        <mxCell id="cngvxrRuGlNg6IQMfRy1-54" style="edgeStyle=orthogonalEdgeStyle;rounded=0;orthogonalLoop=1;jettySize=auto;html=1;entryX=0.5;entryY=0;entryDx=0;entryDy=0;entryPerimeter=0;" edge="1" parent="1" source="cngvxrRuGlNg6IQMfRy1-45" target="cngvxrRuGlNg6IQMfRy1-53">
          <mxGeometry relative="1" as="geometry" />
        </mxCell>
        <mxCell id="cngvxrRuGlNg6IQMfRy1-59" style="edgeStyle=orthogonalEdgeStyle;rounded=0;orthogonalLoop=1;jettySize=auto;html=1;entryX=0.5;entryY=0;entryDx=0;entryDy=0;" edge="1" parent="1" source="cngvxrRuGlNg6IQMfRy1-55" target="cngvxrRuGlNg6IQMfRy1-56">
          <mxGeometry relative="1" as="geometry" />
        </mxCell>
        <mxCell id="cngvxrRuGlNg6IQMfRy1-55" value="multiplyMatrix(r1, c1, matrix1[r1, c1], matrix2[r2, c2], result[r1][c2]" style="strokeWidth=2;html=1;shape=mxgraph.flowchart.start_1;whiteSpace=wrap;" vertex="1" parent="1">
          <mxGeometry x="1180" y="515" width="180" height="70" as="geometry" />
        </mxCell>
        <mxCell id="cngvxrRuGlNg6IQMfRy1-60" style="edgeStyle=orthogonalEdgeStyle;rounded=0;orthogonalLoop=1;jettySize=auto;html=1;entryX=0.5;entryY=0;entryDx=0;entryDy=0;" edge="1" parent="1" source="cngvxrRuGlNg6IQMfRy1-56" target="cngvxrRuGlNg6IQMfRy1-57">
          <mxGeometry relative="1" as="geometry" />
        </mxCell>
        <mxCell id="cngvxrRuGlNg6IQMfRy1-56" value="for (i &amp;lt; r1, i++)" style="rhombus;whiteSpace=wrap;html=1;" vertex="1" parent="1">
          <mxGeometry x="1199" y="640" width="142" height="70" as="geometry" />
        </mxCell>
        <mxCell id="cngvxrRuGlNg6IQMfRy1-62" style="edgeStyle=orthogonalEdgeStyle;rounded=0;orthogonalLoop=1;jettySize=auto;html=1;" edge="1" parent="1" source="cngvxrRuGlNg6IQMfRy1-57" target="cngvxrRuGlNg6IQMfRy1-61">
          <mxGeometry relative="1" as="geometry" />
        </mxCell>
        <mxCell id="cngvxrRuGlNg6IQMfRy1-68" style="edgeStyle=orthogonalEdgeStyle;rounded=0;orthogonalLoop=1;jettySize=auto;html=1;entryX=1;entryY=1;entryDx=0;entryDy=0;" edge="1" parent="1" source="cngvxrRuGlNg6IQMfRy1-57" target="cngvxrRuGlNg6IQMfRy1-56">
          <mxGeometry relative="1" as="geometry" />
        </mxCell>
        <mxCell id="cngvxrRuGlNg6IQMfRy1-57" value="for (j &amp;lt; c2, j++)" style="rhombus;whiteSpace=wrap;html=1;" vertex="1" parent="1">
          <mxGeometry x="1348" y="755" width="142" height="70" as="geometry" />
        </mxCell>
        <mxCell id="cngvxrRuGlNg6IQMfRy1-65" style="edgeStyle=orthogonalEdgeStyle;rounded=0;orthogonalLoop=1;jettySize=auto;html=1;entryX=0.5;entryY=0;entryDx=0;entryDy=0;" edge="1" parent="1" source="cngvxrRuGlNg6IQMfRy1-58" target="cngvxrRuGlNg6IQMfRy1-63">
          <mxGeometry relative="1" as="geometry" />
        </mxCell>
        <mxCell id="cngvxrRuGlNg6IQMfRy1-58" value="for (k &amp;lt; c1, k++)" style="rhombus;whiteSpace=wrap;html=1;" vertex="1" parent="1">
          <mxGeometry x="1348" y="950" width="142" height="70" as="geometry" />
        </mxCell>
        <mxCell id="cngvxrRuGlNg6IQMfRy1-64" style="edgeStyle=orthogonalEdgeStyle;rounded=0;orthogonalLoop=1;jettySize=auto;html=1;entryX=0.5;entryY=0;entryDx=0;entryDy=0;" edge="1" parent="1" source="cngvxrRuGlNg6IQMfRy1-61" target="cngvxrRuGlNg6IQMfRy1-58">
          <mxGeometry relative="1" as="geometry" />
        </mxCell>
        <mxCell id="cngvxrRuGlNg6IQMfRy1-61" value="result[i][j] = 0" style="rounded=1;whiteSpace=wrap;html=1;absoluteArcSize=1;arcSize=14;strokeWidth=2;" vertex="1" parent="1">
          <mxGeometry x="1339" y="860" width="160" height="40" as="geometry" />
        </mxCell>
        <mxCell id="cngvxrRuGlNg6IQMfRy1-66" style="edgeStyle=orthogonalEdgeStyle;rounded=0;orthogonalLoop=1;jettySize=auto;html=1;entryX=1;entryY=1;entryDx=0;entryDy=0;" edge="1" parent="1" source="cngvxrRuGlNg6IQMfRy1-63" target="cngvxrRuGlNg6IQMfRy1-58">
          <mxGeometry relative="1" as="geometry" />
        </mxCell>
        <mxCell id="cngvxrRuGlNg6IQMfRy1-63" value="result[i][j] += matrix1[i][k] * matrix2[k][j]" style="rounded=1;whiteSpace=wrap;html=1;absoluteArcSize=1;arcSize=14;strokeWidth=2;" vertex="1" parent="1">
          <mxGeometry x="1499" y="1040" width="160" height="40" as="geometry" />
        </mxCell>
        <mxCell id="cngvxrRuGlNg6IQMfRy1-70" value="&lt;font style=&quot;font-size: 24px;&quot;&gt;end&lt;/font&gt;" style="strokeWidth=2;html=1;shape=mxgraph.flowchart.start_1;whiteSpace=wrap;" vertex="1" parent="1">
          <mxGeometry x="1220" y="1080" width="100" height="60" as="geometry" />
        </mxCell>
        <mxCell id="cngvxrRuGlNg6IQMfRy1-71" style="edgeStyle=orthogonalEdgeStyle;rounded=0;orthogonalLoop=1;jettySize=auto;html=1;entryX=0.5;entryY=0;entryDx=0;entryDy=0;entryPerimeter=0;" edge="1" parent="1" source="cngvxrRuGlNg6IQMfRy1-56" target="cngvxrRuGlNg6IQMfRy1-70">
          <mxGeometry relative="1" as="geometry" />
        </mxCell>
      </root>
    </mxGraphModel>
  </diagram>
</mxfile>
